<?xml version="1.0" standalone="no"?>
<!DOCTYPE svg PUBLIC "-//W3C//DTD SVG 20010904//EN"
 "http://www.w3.org/TR/2001/REC-SVG-20010904/DTD/svg10.dtd">
<svg version="1.0" xmlns="http://www.w3.org/2000/svg"
 width="512.000000pt" height="512.000000pt" viewBox="0 0 512.000000 512.000000"
 preserveAspectRatio="xMidYMid meet">

<g transform="translate(0.000000,512.000000) scale(0.100000,-0.100000)"
fill="#000" stroke="none">
<path d="M1525 5029 c-129 -18 -293 -83 -422 -165 -69 -44 -194 -163 -255
-244 -94 -123 -198 -381 -198 -490 0 -43 -10 -60 -35 -60 -37 0 -162 -46 -223
-82 -76 -45 -179 -149 -225 -228 -144 -247 -103 -565 98 -765 81 -80 152 -126
257 -162 61 -22 95 -27 216 -31 l142 -5 0 -453 0 -454 -160 -80 -160 -80 0
-265 0 -265 80 0 80 0 0 215 0 215 160 80 160 80 0 585 0 585 -188 0 c-136 0
-204 4 -247 15 -256 67 -415 329 -350 578 47 180 193 320 372 358 55 11 180 8
214 -6 13 -5 20 9 38 70 13 42 21 78 20 80 -2 2 -24 7 -49 12 -44 8 -45 10
-42 43 16 173 118 379 256 515 427 422 1135 300 1404 -241 l45 -91 84 39 c96
45 190 68 283 68 325 0 606 -257 636 -580 l7 -67 -34 -7 c-41 -7 -154 -60
-164 -75 -4 -7 12 -37 36 -69 23 -31 43 -58 44 -60 1 -1 26 10 56 25 47 24 65
28 139 28 72 -1 93 -5 136 -27 75 -39 107 -70 145 -140 31 -58 34 -70 34 -148
0 -78 -3 -90 -34 -148 -38 -70 -69 -100 -145 -140 l-51 -27 -1082 -3 -1083 -2
0 -585 0 -585 160 -80 160 -80 0 -215 0 -215 80 0 80 0 0 265 0 265 -160 80
-160 80 0 455 0 455 371 -2 372 -3 30 -79 c25 -66 28 -84 19 -105 -6 -14 -32
-78 -58 -143 l-48 -116 -100 -24 -101 -23 0 -305 0 -305 101 -23 102 -23 22
-62 c12 -34 37 -95 56 -136 l34 -73 -56 -91 -56 -90 215 -215 215 -215 90 56
91 56 73 -33 c40 -19 101 -44 134 -56 l62 -22 24 -101 23 -102 305 0 305 0 23
102 24 101 77 27 c42 15 102 40 134 57 l58 29 91 -57 91 -56 214 215 215 214
-56 90 -56 91 34 73 c19 41 44 102 56 135 l22 62 101 24 102 23 0 305 0 305
-102 23 -101 24 -22 62 c-12 33 -37 94 -56 135 l-34 73 56 91 56 90 -215 214
-214 215 -90 -56 -91 -56 -75 34 -74 34 4 69 c13 179 -95 365 -259 448 -38 19
-84 37 -102 41 -33 6 -33 6 -39 77 -22 250 -154 470 -365 608 -75 49 -142 78
-247 107 -86 24 -289 23 -375 -2 -110 -31 -101 -33 -145 36 -83 132 -250 281
-400 355 -189 95 -412 132 -620 102z m2649 -2068 l49 -29 80 50 80 50 124
-125 125 -124 -49 -79 -49 -79 58 -115 c32 -63 69 -153 82 -199 13 -46 29 -87
37 -91 8 -4 49 -16 92 -26 l77 -18 0 -177 0 -177 -77 -17 c-43 -9 -84 -21 -92
-25 -8 -4 -25 -45 -38 -91 -13 -46 -49 -136 -81 -200 l-58 -116 49 -78 49 -78
-125 -124 -124 -125 -78 49 -78 49 -116 -58 c-64 -32 -154 -68 -200 -81 -46
-13 -87 -30 -91 -38 -4 -8 -16 -49 -26 -91 l-18 -78 -176 0 -176 0 -18 77
c-10 43 -22 84 -26 92 -4 8 -45 25 -91 38 -46 13 -136 49 -199 81 l-116 59
-78 -50 -79 -49 -124 125 -125 124 49 78 49 78 -58 116 c-32 64 -68 154 -81
200 -13 46 -30 87 -38 91 -8 4 -49 16 -91 26 l-78 18 0 176 0 176 78 18 c42
10 83 22 91 26 8 4 24 45 37 91 13 46 49 134 79 195 l56 112 -34 91 -35 91
237 0 236 -1 -35 -26 c-76 -57 -206 -202 -251 -279 -100 -171 -133 -291 -133
-494 0 -160 12 -226 65 -359 89 -224 288 -428 510 -522 284 -121 602 -100 871
58 112 65 266 219 329 328 54 93 92 185 116 281 26 104 23 343 -5 447 -78 286
-263 508 -526 633 l-97 46 51 55 c27 30 50 59 50 64 0 10 93 -29 164 -70z
m-384 -184 c209 -57 367 -171 481 -345 88 -134 124 -258 124 -432 0 -174 -36
-298 -124 -432 -240 -366 -718 -476 -1087 -249 -325 201 -463 591 -335 953 93
262 317 453 601 514 80 17 262 12 340 -9z"/>
<path d="M3461 2625 c-110 -24 -226 -89 -311 -175 -250 -250 -252 -649 -5
-895 122 -121 256 -183 419 -192 292 -16 560 170 649 452 31 99 31 271 0 370
-101 318 -428 510 -752 440z m254 -160 c172 -45 305 -179 350 -352 65 -249
-94 -511 -350 -578 -250 -65 -513 94 -580 350 -89 342 238 669 580 580z"/>
<path d="M1285 4231 c-92 -24 -173 -90 -215 -176 l-25 -50 -3 -442 -3 -443 81
0 80 0 0 160 0 160 160 0 160 0 0 -160 0 -160 80 0 81 0 -3 443 -3 442 -27 51
c-40 75 -70 107 -137 143 -65 34 -164 49 -226 32z m163 -178 c64 -48 67 -57
70 -264 l3 -189 -160 0 -161 0 0 174 c0 100 5 187 11 203 14 37 47 72 84 89
40 19 119 12 153 -13z"/>
<path d="M1840 3681 l0 -561 80 0 80 0 0 239 0 239 123 4 c107 4 128 8 173 31
75 38 107 69 145 139 31 58 34 70 33 148 0 72 -4 93 -26 136 -39 75 -70 107
-140 145 l-63 34 -202 3 -203 4 0 -561z m406 373 c53 -39 69 -71 69 -134 0
-63 -16 -95 -69 -134 -23 -18 -45 -22 -137 -24 l-109 -4 0 162 0 162 109 -4
c92 -2 114 -6 137 -24z"/>
<path d="M2560 4160 l0 -80 80 0 80 0 0 -400 0 -400 -80 0 -80 0 0 -80 0 -80
240 0 240 0 0 80 0 80 -80 0 -80 0 0 400 0 400 80 0 80 0 0 80 0 80 -240 0
-240 0 0 -80z"/>
<path d="M1200 2880 l0 -80 80 0 80 0 0 80 0 80 -80 0 -80 0 0 -80z"/>
<path d="M1200 2560 l0 -80 80 0 80 0 0 80 0 80 -80 0 -80 0 0 -80z"/>
<path d="M1200 2240 l0 -80 80 0 80 0 0 80 0 80 -80 0 -80 0 0 -80z"/>
<path d="M1200 1551 l0 -449 -30 -12 c-68 -28 -130 -129 -130 -210 0 -124 116
-240 240 -240 124 0 240 116 240 240 0 81 -62 182 -130 210 l-30 12 0 449 0
449 -80 0 -80 0 0 -449z m135 -616 c50 -49 15 -135 -55 -135 -19 0 -40 9 -55
25 -16 15 -25 36 -25 55 0 19 9 40 25 55 15 16 36 25 55 25 19 0 40 -9 55 -25z"/>
<path d="M560 960 l0 -80 80 0 80 0 0 80 0 80 -80 0 -80 0 0 -80z"/>
<path d="M1840 960 l0 -80 80 0 80 0 0 80 0 80 -80 0 -80 0 0 -80z"/>
<path d="M560 631 l0 -89 -30 -12 c-68 -28 -130 -129 -130 -210 0 -124 116
-240 240 -240 124 0 240 116 240 240 0 81 -62 182 -130 210 l-30 12 0 89 0 89
-80 0 -80 0 0 -89z m135 -256 c50 -49 15 -135 -55 -135 -41 0 -80 39 -80 80 0
19 9 40 25 55 15 16 36 25 55 25 19 0 40 -9 55 -25z"/>
<path d="M1840 631 l0 -89 -30 -12 c-42 -17 -104 -90 -118 -138 -28 -91 -8
-167 63 -237 101 -102 229 -102 330 0 71 70 91 146 63 237 -14 48 -76 121
-118 138 l-30 12 0 89 0 89 -80 0 -80 0 0 -89z m135 -256 c50 -49 15 -135 -55
-135 -41 0 -80 39 -80 80 0 41 39 80 80 80 19 0 40 -9 55 -25z"/>
</g>
</svg>
