<?xml version="1.0" standalone="no"?>
<!DOCTYPE svg PUBLIC "-//W3C//DTD SVG 20010904//EN"
 "http://www.w3.org/TR/2001/REC-SVG-20010904/DTD/svg10.dtd">
<svg version="1.0" xmlns="http://www.w3.org/2000/svg"
 width="512.000000pt" height="512.000000pt" viewBox="0 0 512.000000 512.000000"
 preserveAspectRatio="xMidYMid meet">

<g transform="translate(0.000000,512.000000) scale(0.100000,-0.100000)"
fill="#000000" stroke="none">
<path d="M727 5110 c-49 -15 -95 -58 -124 -117 l-28 -58 -3 -2373 c-2 -1728 1
-2385 9 -2415 7 -27 25 -55 51 -79 80 -73 -70 -68 1928 -68 1998 0 1848 -5
1928 68 26 24 44 52 51 79 18 65 11 3807 -7 3848 -20 45 -1058 1081 -1108
1105 -40 20 -66 20 -1355 19 -723 0 -1327 -5 -1342 -9z m2583 -685 l0 -516
-45 27 c-29 17 -66 28 -104 31 -54 5 -62 3 -85 -20 -30 -30 -35 -80 -11 -114
9 -12 39 -28 70 -38 34 -9 60 -24 69 -38 11 -17 15 -76 18 -252 4 -221 5 -232
30 -286 14 -30 40 -72 57 -92 l33 -37 -36 -42 c-69 -80 -79 -124 -85 -384 -7
-262 -8 -267 -83 -279 -55 -10 -88 -44 -88 -90 0 -82 91 -110 195 -61 58 27
94 63 127 126 22 43 23 58 28 285 3 161 9 247 17 261 11 19 78 84 87 84 2 0
27 5 57 10 68 13 99 41 99 90 0 48 -31 77 -98 90 -29 5 -61 14 -71 19 -14 8
-64 58 -83 84 0 1 -4 112 -7 247 -6 244 -6 245 -34 294 -15 27 -26 50 -24 52
2 2 233 5 515 6 l512 3 0 -1102 0 -1103 -1810 0 -1810 0 0 1604 c0 1019 4
1614 10 1630 l10 26 1270 0 1270 0 0 -515z m555 5 l370 -370 -373 0 -372 0 0
370 c0 204 1 370 3 370 1 0 169 -166 372 -370z m505 -3578 c0 -491 -3 -651
-12 -660 -17 -17 -3579 -17 -3596 0 -9 9 -12 169 -12 660 l0 648 1810 0 1810
0 0 -648z"/>
<path d="M1807 3955 c-61 -23 -114 -71 -144 -133 -28 -56 -28 -59 -33 -292 -5
-212 -7 -238 -25 -268 -26 -43 -70 -70 -136 -82 -134 -25 -133 -155 1 -180 69
-13 115 -44 140 -96 18 -36 20 -61 20 -237 0 -108 5 -219 11 -247 24 -112 116
-197 226 -207 52 -5 62 -3 87 19 21 18 28 33 28 61 0 50 -22 73 -88 92 -81 23
-84 34 -84 272 0 258 -13 313 -99 406 l-25 27 30 33 c81 86 94 143 94 400 0
221 6 247 61 266 18 6 40 11 49 11 21 0 58 39 60 65 4 40 -1 56 -25 80 -28 29
-86 33 -148 10z"/>
<path d="M1857 1250 c-141 -24 -250 -136 -288 -296 -6 -27 -12 -94 -12 -149
-1 -167 33 -267 122 -356 40 -40 73 -62 116 -78 112 -43 262 -19 353 55 l22
19 -50 43 -50 43 -30 -25 c-36 -30 -82 -40 -150 -34 -125 12 -199 156 -187
363 10 168 62 261 163 291 63 18 99 13 166 -25 l48 -26 42 42 c48 49 45 59
-33 98 -38 20 -157 49 -179 44 -3 -1 -26 -5 -53 -9z"/>
<path d="M2563 1246 c-28 -7 -63 -20 -77 -29 -78 -51 -123 -142 -113 -228 11
-95 60 -150 203 -229 117 -64 151 -93 162 -133 20 -74 -24 -143 -99 -158 -49
-9 -140 3 -201 28 -48 19 -58 11 -61 -48 -2 -43 -1 -44 48 -69 44 -22 63 -25
155 -25 86 0 113 4 150 21 149 69 196 253 94 372 -22 26 -71 59 -144 97 -123
64 -170 108 -170 158 0 42 31 92 70 112 36 19 147 23 177 6 31 -16 30 -16 59
40 29 57 27 61 -36 79 -63 17 -163 20 -217 6z"/>
<path d="M3233 1250 c-128 -27 -204 -116 -204 -240 -1 -107 51 -170 209 -254
95 -51 119 -69 145 -106 34 -50 11 -137 -44 -166 -46 -23 -148 -21 -224 5 -33
11 -63 21 -66 21 -4 0 -12 -21 -18 -47 -12 -44 -11 -48 10 -64 35 -26 87 -40
174 -46 93 -6 141 5 207 46 70 44 101 100 106 186 6 126 -37 182 -210 270
-110 57 -142 85 -153 135 -9 39 19 95 60 120 37 23 148 30 183 11 32 -17 37
-14 62 40 21 43 22 52 10 60 -42 26 -180 43 -247 29z"/>
</g>
</svg>
