<?xml version="1.0" standalone="no"?>
<!DOCTYPE svg PUBLIC "-//W3C//DTD SVG 20010904//EN"
 "http://www.w3.org/TR/2001/REC-SVG-20010904/DTD/svg10.dtd">
<svg version="1.0" xmlns="http://www.w3.org/2000/svg"
 width="auto" height="auto" viewBox="0 0 512.000000 512.000000"
 preserveAspectRatio="xMidYMid meet">

<g transform="translate(0.000000,512.000000) scale(0.100000,-0.100000)"
fill="#000" stroke="none">
<path d="M988 5104 c-85 -20 -155 -59 -224 -126 -71 -68 -117 -147 -139 -239
-22 -93 -23 -3572 -1 -3622 8 -18 244 -262 549 -566 l536 -535 58 -7 c32 -4
560 -8 1174 -8 1088 -1 1118 0 1195 19 43 11 103 35 132 53 111 66 205 198
231 325 8 38 11 661 11 2165 0 2324 4 2176 -61 2298 -64 119 -206 224 -338
249 -35 6 -574 10 -1560 9 -1249 -1 -1516 -3 -1563 -15z m3102 -336 c33 -17
51 -35 68 -68 l22 -44 0 -2095 0 -2095 -21 -42 c-12 -26 -36 -53 -57 -66 l-37
-23 -1057 -3 -1057 -2 -3 454 c-3 443 -4 455 -24 483 -11 15 -36 38 -54 50
l-33 23 -448 0 -449 0 0 1658 0 1658 23 44 c16 33 34 51 67 68 l44 22 1486 0
1486 0 44 -22z m-2470 -3978 c0 -121 -1 -220 -3 -220 -1 0 -101 99 -222 220
l-220 220 223 0 222 0 0 -220z"/>
<path d="M2463 4490 c-318 -57 -522 -365 -448 -679 45 -191 207 -355 401 -406
74 -19 203 -19 277 0 145 38 288 153 355 285 178 356 -63 777 -460 804 -40 3
-96 1 -125 -4z m207 -358 c26 -17 57 -47 75 -76 26 -42 30 -59 30 -115 -1 -72
-15 -108 -61 -155 -94 -93 -251 -88 -333 10 -49 60 -66 160 -38 227 55 131
207 181 327 109z"/>
<path d="M2235 3260 c-44 -8 -298 -120 -355 -155 -50 -32 -99 -90 -129 -155
-25 -53 -26 -61 -26 -245 0 -185 1 -191 24 -224 57 -79 169 -90 242 -24 50 45
59 80 59 234 0 90 4 129 13 136 6 5 64 33 128 61 l116 52 245 0 245 0 124 -56
c68 -30 127 -61 131 -67 4 -7 8 -75 8 -152 0 -122 3 -144 20 -173 41 -67 123
-95 195 -67 97 36 119 98 112 305 -6 187 -24 238 -111 325 -54 54 -79 69 -226
135 l-165 75 -305 2 c-168 0 -323 -2 -345 -7z"/>
<path d="M1539 1927 c-53 -36 -79 -82 -79 -142 0 -66 29 -112 90 -142 l44 -23
961 0 961 0 44 23 c118 59 123 208 11 284 l-34 23 -982 0 -982 0 -34 -23z"/>
<path d="M2380 1098 c-46 -13 -98 -64 -112 -109 -20 -68 13 -151 74 -189 32
-19 52 -20 612 -20 566 0 579 0 615 21 59 33 76 64 76 139 0 52 -5 72 -23 98
-50 69 -25 67 -647 69 -350 1 -573 -2 -595 -9z"/>
</g>
</svg>
