<?xml version="1.0" encoding="UTF-8"?>
<!DOCTYPE svg PUBLIC "-//W3C//DTD SVG 1.1//EN" "http://www.w3.org/Graphics/SVG/1.1/DTD/svg11.dtd">
<svg xmlns="http://www.w3.org/2000/svg" version="1.1" width="512px" height="512px" style="shape-rendering:geometricPrecision; text-rendering:geometricPrecision; image-rendering:optimizeQuality; fill-rule:evenodd; clip-rule:evenodd" xmlns:xlink="http://www.w3.org/1999/xlink">
<g><path style="opacity:0.962" fill="#000000" d="M 181.5,-0.5 C 190.167,-0.5 198.833,-0.5 207.5,-0.5C 226.996,3.32006 242.996,12.9867 255.5,28.5C 268.004,12.9867 284.004,3.32006 303.5,-0.5C 312.167,-0.5 320.833,-0.5 329.5,-0.5C 354.502,4.65354 373.168,18.4869 385.5,41C 423.468,46.9674 447.635,68.4674 458,105.5C 459.67,115.03 459.836,124.53 458.5,134C 492.548,153.784 505.048,182.951 496,221.5C 491.746,235.424 483.912,246.924 472.5,256C 496.234,276.878 504.067,302.711 496,333.5C 489.932,353.566 477.432,368.066 458.5,377C 461.933,413.134 448.266,440.801 417.5,460C 407.427,465.186 396.761,468.519 385.5,470C 373.045,492.972 354.045,506.806 328.5,511.5C 320.167,511.5 311.833,511.5 303.5,511.5C 284.004,507.68 268.004,498.013 255.5,482.5C 242.996,498.013 226.996,507.68 207.5,511.5C 198.833,511.5 190.167,511.5 181.5,511.5C 156.498,506.346 137.832,492.513 125.5,470C 85.0081,463.175 60.5081,439.675 52,399.5C 51.1868,391.92 51.3534,384.42 52.5,377C 26.0798,363.359 12.4131,341.525 11.5,311.5C 12.3807,288.908 21.3807,270.408 38.5,256C 12.2566,231.856 5.42325,203.023 18,169.5C 25.7801,154.053 37.2801,142.22 52.5,134C 49.0039,92.3216 66.3372,62.9882 104.5,46C 111.386,43.8619 118.386,42.1953 125.5,41C 137.832,18.4869 156.498,4.65354 181.5,-0.5 Z M 184.5,30.5 C 202.5,27.9987 217.666,33.3321 230,46.5C 234.617,52.4044 237.617,59.071 239,66.5C 239.667,97.1667 239.667,127.833 239,158.5C 224.645,150.132 209.145,146.966 192.5,149C 157.115,154.942 135.615,175.442 128,210.5C 124.429,233.218 129.762,253.551 144,271.5C 175.667,303.167 207.333,334.833 239,366.5C 239.965,393.882 239.632,421.216 238,448.5C 230.606,468.713 216.106,479.713 194.5,481.5C 178.765,480.718 166.265,474.051 157,461.5C 153.058,454.343 149.891,446.843 147.5,439C 119.028,442.686 98.5278,431.853 86,406.5C 83.0789,399.45 81.9122,392.117 82.5,384.5C 87.1667,384.5 91.8333,384.5 96.5,384.5C 96.5,374.167 96.5,363.833 96.5,353.5C 82.3523,354.78 69.3523,351.613 57.5,344C 41.8181,328.229 38.9848,310.395 49,290.5C 58.2267,277.026 71.06,270.693 87.5,271.5C 87.5,261.167 87.5,250.833 87.5,240.5C 60.9719,239.805 45.9719,226.305 42.5,200C 43.5948,178.914 54.2614,165.581 74.5,160C 81.7859,158.814 89.1193,158.314 96.5,158.5C 96.5,148.167 96.5,137.833 96.5,127.5C 91.8333,127.5 87.1667,127.5 82.5,127.5C 82.3375,100.983 94.6709,83.1495 119.5,74C 128.783,72.8134 138.117,72.1467 147.5,72C 150.81,57.6941 158.143,46.0275 169.5,37C 174.367,34.2259 179.367,32.0593 184.5,30.5 Z M 307.5,30.5 C 326.898,27.6246 342.398,33.9579 354,49.5C 357.951,56.6909 361.118,64.1909 363.5,72C 392.991,68.3197 413.824,79.8197 426,106.5C 428.078,113.345 428.911,120.345 428.5,127.5C 423.833,127.5 419.167,127.5 414.5,127.5C 414.5,137.833 414.5,148.167 414.5,158.5C 432.532,156.121 447.699,161.454 460,174.5C 471.333,191.167 471.333,207.833 460,224.5C 450.447,235.691 438.28,241.025 423.5,240.5C 423.5,250.833 423.5,261.167 423.5,271.5C 450.256,272.256 465.256,285.923 468.5,312.5C 467.011,333.66 456.011,346.827 435.5,352C 428.54,353.087 421.54,353.587 414.5,353.5C 414.5,363.833 414.5,374.167 414.5,384.5C 419.167,384.5 423.833,384.5 428.5,384.5C 428.346,410.658 416.013,428.158 391.5,437C 382.217,438.187 372.883,438.853 363.5,439C 354.83,472.16 333.83,485.16 300.5,478C 284.861,472.03 275.361,460.863 272,444.5C 271.333,418.5 271.333,392.5 272,366.5C 303.667,334.833 335.333,303.167 367,271.5C 387.403,243.461 389.403,214.128 373,183.5C 351.26,153.026 322.093,142.526 285.5,152C 280.603,153.407 276.103,155.573 272,158.5C 271.03,126.452 271.363,94.4522 273,62.5C 278.599,45.3988 290.099,34.7321 307.5,30.5 Z M 195.5,179.5 C 208.105,178.317 219.438,181.484 229.5,189C 238.014,197.681 246.681,206.181 255.5,214.5C 264.319,206.181 272.986,197.681 281.5,189C 304.386,174.376 325.219,176.876 344,196.5C 356.578,215.036 356.245,233.369 343,251.5C 313.986,280.68 284.82,309.68 255.5,338.5C 226.18,309.68 197.014,280.68 168,251.5C 152.792,228.286 155.292,207.12 175.5,188C 181.73,183.876 188.397,181.043 195.5,179.5 Z"/></g>
</svg>
