<?xml version="1.0" standalone="no"?>
<!DOCTYPE svg PUBLIC "-//W3C//DTD SVG 20010904//EN"
 "http://www.w3.org/TR/2001/REC-SVG-20010904/DTD/svg10.dtd">
<svg version="1.0" xmlns="http://www.w3.org/2000/svg"
 width="512.000000pt" height="512.000000pt" viewBox="0 0 512.000000 512.000000"
 preserveAspectRatio="xMidYMid meet">

<g transform="translate(0.000000,512.000000) scale(0.100000,-0.100000)"
fill="#000000" stroke="none">
<path d="M1665 4854 c-118 -14 -200 -46 -291 -114 -101 -76 -196 -233 -234
-388 -11 -43 -112 -841 -225 -1774 -214 -1776 -212 -1757 -270 -1833 -47 -63
-155 -67 -203 -8 -57 70 -71 83 -93 83 -13 0 -89 -18 -169 -40 -199 -55 -211
-73 -139 -219 62 -125 203 -239 345 -276 74 -20 222 -22 294 -5 206 48 379
239 440 487 11 43 112 842 225 1775 153 1265 210 1710 224 1748 41 109 100
150 186 130 38 -9 64 -31 108 -94 24 -35 43 -33 217 14 164 45 186 60 176 120
-17 108 -143 265 -262 328 -91 47 -237 77 -329 66z m190 -171 c72 -22 141 -69
186 -126 22 -27 39 -52 39 -56 0 -3 -28 -14 -62 -23 l-62 -16 -48 43 c-55 49
-114 69 -204 68 -134 -1 -239 -100 -290 -272 -7 -25 -106 -811 -219 -1746
-113 -935 -213 -1727 -221 -1760 -41 -158 -161 -310 -281 -355 -120 -45 -291
-24 -398 50 -39 27 -115 112 -115 129 0 4 28 14 62 23 l62 16 48 -43 c55 -49
114 -69 204 -68 134 1 239 100 290 272 7 25 106 811 219 1746 113 935 213
1727 221 1759 38 146 143 289 250 342 89 43 211 50 319 17z"/>
<path d="M1956 3997 c-19 -19 -34 -79 -99 -407 -135 -682 -152 -839 -152
-1385 1 -512 22 -731 120 -1210 87 -424 110 -517 135 -537 19 -16 42 -18 185
-18 90 0 171 3 180 6 8 4 22 19 30 34 13 26 9 53 -56 350 -80 369 -109 530
-141 790 -19 162 -22 233 -22 580 -1 532 18 695 158 1385 77 378 79 402 36
425 -10 6 -93 10 -185 10 -159 0 -167 -1 -189 -23z m239 -149 c-3 -13 -34
-167 -69 -343 -111 -553 -135 -754 -143 -1191 -7 -403 15 -708 77 -1069 16
-92 104 -511 134 -637 4 -16 -4 -18 -63 -18 l-67 0 -57 268 c-130 603 -164
922 -154 1457 6 331 14 429 53 705 20 143 144 792 159 838 3 8 26 12 70 12 63
0 65 -1 60 -22z"/>
<path d="M4475 3995 c-14 -13 -25 -30 -25 -37 0 -7 18 -105 41 -218 35 -178
43 -208 65 -227 28 -26 42 -28 78 -12 47 22 49 50 16 206 -16 79 -30 147 -30
153 0 6 28 10 64 10 53 0 66 -3 70 -17 8 -27 123 -615 140 -718 99 -580 99
-1231 0 -1845 -22 -137 -109 -562 -135 -662 l-10 -38 -64 0 c-36 0 -65 2 -65
4 0 3 25 119 56 258 142 646 188 1148 154 1683 -22 329 -73 693 -103 731 -24
31 -78 33 -108 3 -24 -24 -24 -28 10 -259 69 -462 78 -962 25 -1420 -23 -199
-60 -409 -135 -751 -38 -175 -69 -326 -69 -334 0 -9 11 -27 25 -40 24 -25 27
-25 190 -25 92 0 174 4 184 10 27 14 35 42 101 345 171 786 208 1352 135 2045
-22 201 -53 392 -129 770 -81 399 -73 367 -96 390 -18 18 -34 20 -190 20 -168
0 -171 0 -195 -25z"/>
<path d="M3043 3930 c-26 -10 -43 -39 -43 -72 0 -15 55 -97 150 -221 83 -109
150 -202 150 -207 0 -5 -75 -109 -167 -230 -176 -233 -188 -256 -148 -300 18
-19 58 -26 88 -14 8 3 84 97 169 209 84 113 156 205 159 205 3 0 78 -96 167
-214 90 -118 170 -217 178 -220 31 -12 61 -6 82 17 44 46 34 65 -154 312 -96
126 -172 235 -170 242 3 6 70 99 150 206 86 114 146 203 146 216 0 55 -51 91
-99 71 -16 -6 -81 -83 -161 -190 -74 -99 -137 -180 -140 -180 -3 1 -66 81
-140 180 -118 157 -161 202 -188 199 -4 0 -17 -4 -29 -9z"/>
<path d="M2464 2639 c-17 -19 -19 -38 -19 -189 0 -151 2 -170 19 -189 l19 -21
908 0 908 0 20 26 c19 24 21 40 21 184 0 144 -2 160 -21 184 l-20 26 -908 0
-908 0 -19 -21z m1726 -189 l0 -60 -800 0 -800 0 0 60 0 60 800 0 800 0 0 -60z"/>
<path d="M3006 1939 c-17 -13 -26 -30 -26 -49 0 -16 76 -243 169 -505 l169
-477 -64 -185 c-35 -101 -64 -195 -64 -208 0 -59 79 -90 121 -48 19 19 499
1387 499 1423 0 10 -8 28 -19 41 -22 27 -83 32 -107 8 -8 -9 -75 -190 -149
-404 -74 -213 -136 -389 -138 -391 -1 -2 -54 142 -116 319 -164 465 -167 472
-197 485 -35 17 -47 15 -78 -9z"/>
</g>
</svg>
