<?xml version="1.0" standalone="no"?>
<!DOCTYPE svg PUBLIC "-//W3C//DTD SVG 20010904//EN"
 "http://www.w3.org/TR/2001/REC-SVG-20010904/DTD/svg10.dtd">
<svg version="1.0" xmlns="http://www.w3.org/2000/svg"
 width="512.000000pt" height="512.000000pt" viewBox="0 0 512.000000 512.000000"
 preserveAspectRatio="xMidYMid meet">

<g transform="translate(0.000000,512.000000) scale(0.100000,-0.100000)"
fill="#000000" stroke="none">
<path d="M402 5100 c-95 -25 -173 -70 -243 -139 -70 -71 -114 -148 -139 -247
-20 -76 -20 -114 -20 -1874 0 -1760 0 -1798 20 -1874 50 -196 202 -344 401
-391 50 -12 135 -15 401 -15 l336 0 4 -168 c3 -144 6 -173 24 -213 31 -66 78
-114 142 -146 l57 -28 1175 0 1175 0 57 28 c64 32 111 80 142 146 18 40 21 69
24 213 l4 168 336 0 c373 0 414 5 531 63 86 42 186 142 228 228 67 135 63 11
63 1989 0 1978 4 1854 -62 1988 -39 78 -131 175 -210 220 -31 18 -91 41 -134
52 -76 20 -114 20 -2158 19 -2020 0 -2083 -1 -2154 -19z m4328 -128 c113 -46
196 -130 242 -242 22 -52 23 -70 26 -372 l3 -318 -2440 0 -2441 0 0 293 c0
232 3 305 16 352 28 108 93 196 186 252 109 66 -49 62 2258 60 l2095 -2 55
-23z m268 -2509 l-3 -1458 -23 -55 c-46 -113 -129 -196 -242 -242 -53 -22 -68
-23 -412 -26 l-358 -3 -2 1308 -3 1308 -28 57 c-32 64 -80 111 -146 142 -46
21 -52 21 -977 21 l-930 0 -57 -30 c-80 -43 -592 -549 -627 -620 l-25 -50 -3
-1068 -2 -1068 -358 3 c-344 3 -359 4 -412 26 -113 46 -196 129 -242 242 l-23
55 -3 1458 -2 1457 2440 0 2440 0 -2 -1457z m-1263 918 c48 -22 69 -44 90 -94
13 -32 15 -208 15 -1527 0 -1319 -2 -1495 -15 -1527 -21 -50 -42 -72 -90 -94
-38 -18 -95 -19 -1175 -19 -1080 0 -1137 1 -1175 19 -48 22 -69 44 -90 94 -13
32 -15 180 -15 1242 l0 1205 268 0 c238 0 271 2 307 19 48 22 69 44 90 94 12
30 15 88 15 322 l0 285 868 0 c820 0 869 -1 907 -19z m-1895 -281 c0 -247 -1
-261 -20 -280 -19 -19 -33 -20 -276 -20 l-256 0 17 28 c15 21 523 530 533 532
1 0 2 -117 2 -260z"/>
<path d="M540 4658 c-132 -67 -132 -249 0 -315 24 -13 60 -23 80 -23 20 0 56
10 80 23 132 66 132 248 0 315 -24 12 -60 22 -80 22 -20 0 -56 -10 -80 -22z
m120 -118 c11 -11 20 -29 20 -40 0 -26 -34 -60 -60 -60 -26 0 -60 34 -60 60 0
11 9 29 20 40 11 11 29 20 40 20 11 0 29 -9 40 -20z"/>
<path d="M1180 4658 c-132 -67 -132 -249 0 -315 24 -13 60 -23 80 -23 20 0 56
10 80 23 132 66 132 248 0 315 -24 12 -60 22 -80 22 -20 0 -56 -10 -80 -22z
m120 -118 c11 -11 20 -29 20 -40 0 -11 -9 -29 -20 -40 -11 -11 -29 -20 -40
-20 -11 0 -29 9 -40 20 -11 11 -20 29 -20 40 0 11 9 29 20 40 11 11 29 20 40
20 11 0 29 -9 40 -20z"/>
<path d="M1820 4658 c-132 -67 -132 -249 0 -315 24 -13 60 -23 80 -23 20 0 56
10 80 23 132 66 132 248 0 315 -24 12 -60 22 -80 22 -20 0 -56 -10 -80 -22z
m120 -118 c11 -11 20 -29 20 -40 0 -11 -9 -29 -20 -40 -11 -11 -29 -20 -40
-20 -11 0 -29 9 -40 20 -11 11 -20 29 -20 40 0 11 9 29 20 40 11 11 29 20 40
20 11 0 29 -9 40 -20z"/>
<path d="M3740 4658 c-132 -67 -132 -249 0 -315 43 -23 51 -23 400 -23 349 0
357 0 400 23 132 66 132 248 0 315 -43 22 -51 22 -400 22 -349 0 -357 0 -400
-22z m760 -118 c11 -11 20 -29 20 -40 0 -11 -9 -29 -20 -40 -19 -19 -33 -20
-360 -20 -327 0 -341 1 -360 20 -11 11 -20 29 -20 40 0 11 9 29 20 40 19 19
33 20 360 20 327 0 341 -1 360 -20z"/>
<path d="M2321 2083 c-20 -17 -21 -28 -23 -339 l-3 -321 -27 -40 c-92 -139
-301 -90 -327 78 -12 74 -49 98 -100 63 -21 -15 -23 -22 -18 -74 9 -102 70
-191 165 -237 74 -36 182 -39 253 -6 60 27 119 86 150 149 24 48 24 53 27 376
3 319 3 327 -17 347 -26 26 -52 27 -80 4z"/>
<path d="M2871 2083 c-65 -23 -136 -98 -155 -164 -9 -29 -16 -64 -16 -79 0
-61 31 -132 79 -180 58 -58 118 -80 220 -80 87 0 128 -19 161 -72 39 -64 16
-146 -52 -188 -27 -16 -51 -20 -125 -20 -84 0 -94 2 -122 26 -21 18 -33 38
-37 66 -8 50 -43 76 -82 62 -96 -34 -7 -230 119 -264 26 -7 87 -10 149 -8 117
4 160 20 217 80 121 126 85 329 -72 410 -29 15 -68 23 -143 28 -114 7 -143 20
-175 81 -22 41 -17 100 10 138 33 45 79 61 171 61 121 0 137 -11 168 -115 13
-41 53 -55 89 -31 25 16 27 22 23 67 -7 73 -51 137 -117 171 -49 26 -62 28
-160 27 -69 0 -122 -6 -150 -16z"/>
</g>
</svg>
