<?xml version="1.0" standalone="no"?>
<!DOCTYPE svg PUBLIC "-//W3C//DTD SVG 20010904//EN"
 "http://www.w3.org/TR/2001/REC-SVG-20010904/DTD/svg10.dtd">
<svg version="1.0" xmlns="http://www.w3.org/2000/svg"
 width="512.000000pt" height="512.000000pt" viewBox="0 0 512.000000 512.000000"
 preserveAspectRatio="xMidYMid meet">

<g transform="translate(0.000000,512.000000) scale(0.100000,-0.100000)"
fill="#000000" stroke="none">
<path d="M4858 4974 c-34 -34 -38 -36 -68 -25 -82 28 -166 6 -235 -64 -70 -69
-92 -153 -64 -235 12 -32 11 -33 -80 -124 l-91 -91 0 39 c0 130 -113 246 -240
246 -63 0 -114 -23 -165 -75 -96 -95 -101 -220 -14 -319 46 -52 95 -77 166
-85 l53 -6 -169 -169 -169 -169 -32 12 c-82 28 -166 6 -235 -64 -70 -69 -92
-153 -64 -235 l12 -32 -129 -129 c-71 -71 -132 -129 -136 -129 -5 0 -8 7 -8
15 0 30 -40 93 -80 127 -97 84 -222 77 -315 -17 -94 -93 -101 -218 -17 -315
34 -40 97 -80 127 -80 8 0 15 -3 15 -8 0 -4 -58 -65 -129 -136 l-129 -129 -32
12 c-82 28 -166 6 -235 -64 -70 -69 -92 -153 -64 -235 l12 -32 -149 -149
c-141 -141 -151 -149 -188 -149 -69 0 -118 -21 -171 -75 -54 -53 -75 -102 -75
-171 0 -38 -10 -49 -349 -388 l-349 -349 -32 12 c-82 28 -166 6 -235 -64 -70
-69 -92 -153 -64 -234 11 -33 11 -34 -67 -112 l-79 -79 58 -57 57 -58 79 79
c78 78 79 78 112 67 81 -28 165 -6 235 64 70 70 89 150 59 250 -5 16 58 83
328 353 l333 333 55 -25 c98 -46 186 -30 264 49 79 78 95 166 49 264 l-25 55
133 133 c106 106 137 133 153 128 100 -30 180 -11 251 59 70 71 89 151 59 251
-5 16 70 95 394 419 l399 399 32 -12 c82 -28 166 -6 236 64 70 70 89 150 59
250 -5 16 62 88 354 379 l359 359 32 -12 c82 -28 166 -6 235 64 70 69 92 153
64 234 -11 31 -9 35 25 70 20 20 36 41 36 47 0 13 -93 104 -106 104 -5 0 -26
-16 -46 -36z m-83 -199 c16 -15 25 -36 25 -55 0 -19 -9 -40 -25 -55 -15 -16
-36 -25 -55 -25 -19 0 -40 9 -55 25 -16 15 -25 36 -25 55 0 19 9 40 25 55 15
16 36 25 55 25 19 0 40 -9 55 -25z m-640 -240 c16 -15 25 -36 25 -55 0 -19 -9
-40 -25 -55 -15 -16 -36 -25 -55 -25 -19 0 -40 9 -55 25 -16 15 -25 36 -25 55
0 19 9 40 25 55 15 16 36 25 55 25 19 0 40 -9 55 -25z m-400 -800 c16 -15 25
-36 25 -55 0 -19 -9 -40 -25 -55 -15 -16 -36 -25 -55 -25 -19 0 -40 9 -55 25
-16 15 -25 36 -25 55 0 19 9 40 25 55 15 16 36 25 55 25 19 0 40 -9 55 -25z
m-720 -400 c16 -15 25 -36 25 -55 0 -19 -9 -40 -25 -55 -15 -16 -36 -25 -55
-25 -19 0 -40 9 -55 25 -16 15 -25 36 -25 55 0 19 9 40 25 55 15 16 36 25 55
25 19 0 40 -9 55 -25z m-400 -720 c50 -49 15 -135 -55 -135 -19 0 -40 9 -55
25 -50 49 -15 135 55 135 19 0 40 -9 55 -25z m-560 -640 c50 -49 15 -135 -55
-135 -19 0 -40 9 -55 25 -16 15 -25 36 -25 55 0 19 9 40 25 55 15 16 36 25 55
25 19 0 40 -9 55 -25z m-1040 -960 c16 -15 25 -36 25 -55 0 -19 -9 -40 -25
-55 -15 -16 -36 -25 -55 -25 -19 0 -40 9 -55 25 -16 15 -25 36 -25 55 0 19 9
40 25 55 15 16 36 25 55 25 19 0 40 -9 55 -25z"/>
<path d="M160 2585 l0 -2376 25 -24 24 -25 2376 0 2375 0 0 80 0 80 -80 0 -80
0 0 80 0 80 -80 0 -80 0 0 -80 0 -80 -160 0 -160 0 0 80 0 80 -80 0 -80 0 0
-80 0 -80 -160 0 -160 0 0 80 0 80 -80 0 -80 0 0 -80 0 -80 -160 0 -160 0 0
80 0 80 -80 0 -80 0 0 -80 0 -80 -160 0 -160 0 0 80 0 80 -80 0 -80 0 0 -80 0
-80 -160 0 -160 0 0 80 0 80 -80 0 -80 0 0 -80 0 -80 -160 0 -160 0 0 80 0 80
-80 0 -80 0 0 -80 0 -80 -160 0 -160 0 0 80 0 80 -80 0 -80 0 0 -80 0 -80
-160 0 -160 0 0 80 0 80 -80 0 -80 0 0 -80 0 -80 -240 0 -240 0 0 240 0 240
80 0 80 0 0 80 0 80 -80 0 -80 0 0 160 0 160 80 0 80 0 0 80 0 80 -80 0 -80 0
0 160 0 160 80 0 80 0 0 80 0 80 -80 0 -80 0 0 160 0 160 80 0 80 0 0 80 0 80
-80 0 -80 0 0 160 0 160 80 0 80 0 0 80 0 80 -80 0 -80 0 0 160 0 160 80 0 80
0 0 80 0 80 -80 0 -80 0 0 160 0 160 80 0 80 0 0 80 0 80 -80 0 -80 0 0 160 0
160 80 0 80 0 0 80 0 80 -80 0 -80 0 0 160 0 160 80 0 80 0 0 80 0 80 -80 0
-80 0 0 80 0 80 -80 0 -80 0 0 -2375z"/>
<path d="M3200 4387 c-49 -16 -133 -102 -148 -153 -28 -94 -8 -169 63 -239 51
-52 102 -75 165 -75 63 0 114 23 165 75 98 97 101 222 8 325 -65 72 -158 97
-253 67z m135 -172 c16 -15 25 -36 25 -55 0 -19 -9 -40 -25 -55 -15 -16 -36
-25 -55 -25 -19 0 -40 9 -55 25 -16 15 -25 36 -25 55 0 19 9 40 25 55 15 16
36 25 55 25 19 0 40 -9 55 -25z"/>
<path d="M4320 4147 c-49 -16 -133 -102 -148 -153 -28 -94 -8 -169 63 -239 51
-52 102 -75 165 -75 63 0 114 23 165 75 98 97 101 222 8 325 -65 72 -158 97
-253 67z m135 -172 c16 -15 25 -36 25 -55 0 -19 -9 -40 -25 -55 -15 -16 -36
-25 -55 -25 -19 0 -40 9 -55 25 -16 15 -25 36 -25 55 0 19 9 40 25 55 15 16
36 25 55 25 19 0 40 -9 55 -25z"/>
<path d="M1920 3347 c-49 -16 -133 -102 -148 -153 -28 -94 -8 -169 63 -239 51
-52 102 -75 165 -75 63 0 114 23 165 75 98 97 101 222 8 325 -65 72 -158 97
-253 67z m135 -172 c50 -49 15 -135 -55 -135 -41 0 -80 39 -80 80 0 41 39 80
80 80 19 0 40 -9 55 -25z"/>
<path d="M3360 3027 c-49 -16 -133 -102 -148 -153 -28 -94 -8 -169 63 -239
101 -102 229 -102 330 0 98 97 101 222 8 325 -65 72 -158 97 -253 67z m135
-172 c16 -15 25 -36 25 -55 0 -19 -9 -40 -25 -55 -15 -16 -36 -25 -55 -25 -19
0 -40 9 -55 25 -16 15 -25 36 -25 55 0 19 9 40 25 55 15 16 36 25 55 25 19 0
40 -9 55 -25z"/>
<path d="M1200 2707 c-49 -16 -133 -102 -148 -153 -28 -94 -8 -169 63 -239
101 -102 229 -102 330 0 98 97 101 222 8 325 -65 72 -158 97 -253 67z m135
-172 c50 -49 15 -135 -55 -135 -19 0 -40 9 -55 25 -16 15 -25 36 -25 55 0 19
9 40 25 55 15 16 36 25 55 25 19 0 40 -9 55 -25z"/>
<path d="M2960 1987 c-49 -16 -133 -102 -148 -153 -28 -94 -8 -169 63 -239
101 -102 229 -102 330 0 98 97 101 222 8 325 -65 72 -158 97 -253 67z m135
-172 c50 -49 15 -135 -55 -135 -41 0 -80 39 -80 80 0 41 39 80 80 80 19 0 40
-9 55 -25z"/>
<path d="M960 1827 c-49 -16 -133 -102 -148 -153 -28 -94 -8 -169 63 -239 101
-102 229 -102 330 0 98 97 101 222 8 325 -65 72 -158 97 -253 67z m135 -172
c16 -15 25 -36 25 -55 0 -19 -9 -40 -25 -55 -15 -16 -36 -25 -55 -25 -19 0
-40 9 -55 25 -16 15 -25 36 -25 55 0 19 9 40 25 55 15 16 36 25 55 25 19 0 40
-9 55 -25z"/>
</g>
</svg>
