<?xml version="1.0" standalone="no"?>
<!DOCTYPE svg PUBLIC "-//W3C//DTD SVG 20010904//EN"
 "http://www.w3.org/TR/2001/REC-SVG-20010904/DTD/svg10.dtd">
<svg version="1.0" xmlns="http://www.w3.org/2000/svg"
 width="512.000000pt" height="512.000000pt" viewBox="0 0 512.000000 512.000000"
 preserveAspectRatio="xMidYMid meet">

<g transform="translate(0.000000,512.000000) scale(0.100000,-0.100000)"
fill="#000000" stroke="none">
<path d="M2125 5114 c-318 -34 -572 -104 -831 -230 -227 -110 -504 -308 -504
-361 0 -11 9 -32 21 -47 35 -45 72 -36 175 42 668 507 1535 593 2274 226 236
-117 415 -249 596 -436 312 -324 506 -717 581 -1173 19 -115 26 -513 10 -565
-4 -15 -37 -46 -83 -79 l-76 -54 -45 22 -45 22 7 52 c58 435 -21 863 -229
1228 -68 119 -95 149 -133 149 -37 0 -73 -36 -73 -73 0 -15 15 -50 34 -79 146
-230 247 -543 265 -823 7 -111 -2 -372 -14 -383 -2 -3 -28 1 -57 9 l-53 14
-17 101 c-18 116 -35 153 -80 186 -31 21 -42 23 -173 23 -131 0 -142 -2 -173
-23 -45 -33 -61 -70 -80 -185 l-17 -101 -73 -22 c-40 -12 -117 -43 -171 -69
l-99 -48 -87 63 c-70 52 -95 64 -134 68 -68 6 -106 -15 -200 -113 -118 -123
-121 -173 -20 -312 l62 -85 -48 -99 c-26 -54 -57 -131 -69 -171 l-22 -73 -102
-17 c-116 -20 -151 -35 -184 -80 -21 -31 -23 -42 -23 -173 0 -131 2 -142 23
-173 33 -45 68 -60 185 -80 l102 -17 14 -53 c8 -29 12 -55 9 -57 -3 -3 -63 -9
-134 -14 -315 -20 -607 35 -884 165 -127 61 -307 176 -388 251 l-53 48 515
514 515 515 43 -20 c31 -14 65 -19 128 -19 72 0 92 4 135 27 60 31 114 87 146
148 20 38 24 60 24 135 0 78 -4 97 -27 140 -33 64 -99 125 -161 151 l-47 19 0
729 0 729 87 -7 c381 -29 775 -210 1074 -494 96 -91 127 -102 167 -59 38 40
29 71 -40 144 -215 224 -541 415 -852 499 -241 65 -544 83 -787 48 -572 -83
-1077 -423 -1380 -929 -116 -194 -209 -459 -243 -695 -22 -150 -22 -400 0
-551 89 -615 474 -1150 1030 -1435 351 -179 745 -244 1151 -189 l52 7 22 -45
22 -45 -54 -76 c-33 -46 -64 -79 -79 -83 -52 -16 -450 -9 -565 10 -456 75
-841 265 -1169 578 -188 180 -321 360 -440 599 -298 598 -300 1291 -7 1895 73
151 193 337 290 450 33 38 63 80 66 93 12 49 -50 101 -98 83 -13 -5 -53 -45
-89 -88 -188 -227 -319 -459 -411 -729 -91 -267 -122 -455 -121 -754 0 -244
14 -361 70 -579 204 -795 851 -1442 1646 -1646 226 -57 324 -69 598 -70 l245
-1 79 -81 c93 -97 129 -117 197 -111 39 4 64 16 134 68 l87 63 99 -48 c54 -26
131 -57 171 -69 l73 -22 17 -101 c19 -115 35 -152 80 -185 31 -21 42 -23 173
-23 131 0 142 2 173 23 45 33 61 70 80 185 l17 101 73 22 c40 12 117 43 171
69 l99 48 85 -62 c139 -101 189 -98 312 20 98 94 119 132 113 200 -4 39 -16
64 -68 134 l-63 87 48 99 c26 54 57 131 69 171 l22 73 101 17 c115 19 152 35
185 80 21 31 23 42 23 173 0 131 -2 142 -23 173 -33 45 -70 61 -185 80 l-101
17 -22 73 c-12 40 -43 117 -69 171 l-48 99 63 87 c52 70 64 95 68 134 6 68
-14 104 -111 197 l-81 79 -1 245 c-1 274 -13 372 -70 598 -226 881 -977 1557
-1885 1697 -101 15 -442 28 -525 19z m105 -1261 l0 -728 -47 -19 c-62 -26
-128 -88 -161 -151 -23 -42 -27 -63 -27 -135 0 -63 5 -97 19 -128 l20 -43
-515 -515 -514 -515 -48 53 c-72 78 -189 259 -246 378 -91 191 -153 413 -167
603 l-7 87 148 0 c139 0 150 1 172 22 33 30 31 80 -3 107 -24 19 -40 21 -172
21 l-145 0 7 87 c14 190 76 412 167 603 55 116 172 296 245 378 l47 53 107
-105 c117 -115 142 -127 187 -84 46 43 34 70 -83 188 l-105 107 53 47 c74 66
245 179 347 230 208 105 487 182 669 185 l52 1 0 -727z m167 -899 c53 -40 68
-71 68 -139 0 -105 -55 -160 -160 -160 -69 0 -99 15 -139 69 -33 43 -30 141 6
188 15 19 42 42 60 52 43 22 129 17 165 -10z m1388 -341 c23 -153 30 -164 130
-188 96 -23 208 -68 283 -116 35 -21 75 -39 90 -39 19 0 61 25 129 75 56 41
106 75 110 75 17 0 126 -119 120 -132 -3 -7 -37 -55 -76 -107 -48 -64 -71
-103 -71 -122 0 -15 18 -56 39 -91 48 -75 93 -187 116 -283 24 -100 35 -107
188 -130 l127 -18 0 -92 0 -92 -127 -18 c-153 -23 -164 -30 -188 -130 -23 -96
-68 -208 -116 -283 -21 -35 -39 -75 -39 -90 0 -19 25 -61 75 -129 41 -56 75
-106 75 -110 0 -11 -113 -123 -123 -123 -5 0 -54 34 -110 75 -68 50 -110 75
-129 75 -15 0 -55 -18 -90 -39 -75 -48 -187 -93 -283 -116 -100 -24 -107 -35
-130 -188 l-18 -127 -92 0 -92 0 -18 126 c-18 125 -38 174 -70 174 -26 0 -185
50 -242 77 -32 14 -82 42 -111 60 -76 48 -93 45 -203 -38 -52 -39 -100 -73
-107 -76 -13 -6 -132 103 -132 120 0 4 34 54 75 110 50 68 75 110 75 129 0 15
-18 55 -39 90 -48 75 -93 187 -116 283 -24 100 -35 107 -188 130 l-127 18 0
92 0 92 127 18 c153 23 164 30 188 130 23 96 68 208 116 283 21 35 39 75 39
90 0 19 -25 61 -75 129 -41 56 -75 106 -75 110 0 11 113 123 123 123 5 0 54
-34 110 -75 68 -50 110 -75 129 -75 15 0 55 18 90 39 75 48 187 93 283 116
100 24 107 35 130 188 l18 127 92 0 92 0 18 -127z"/>
<path d="M3487 2189 c-203 -49 -395 -201 -490 -385 -60 -118 -87 -228 -87
-359 0 -131 27 -241 87 -359 38 -73 65 -109 138 -181 108 -109 219 -172 361
-206 158 -38 419 -13 485 47 25 23 25 78 -1 104 -25 25 -51 25 -147 -1 -64
-18 -95 -21 -188 -16 -134 6 -206 29 -310 98 -116 78 -203 189 -247 317 -19
57 -23 87 -23 197 0 110 4 140 23 197 44 128 131 239 248 317 114 76 183 96
339 96 110 0 140 -4 197 -23 128 -44 239 -131 317 -247 69 -104 92 -176 98
-310 5 -93 2 -123 -16 -189 -26 -95 -46 -136 -111 -221 -66 -87 -70 -106 -32
-145 17 -16 41 -30 53 -30 35 0 119 96 169 191 65 125 81 186 87 329 7 158
-15 259 -84 394 -38 73 -65 109 -138 182 -78 79 -104 97 -195 142 -62 31 -135
58 -178 67 -101 21 -258 18 -355 -6z"/>
<path d="M3746 1535 l-149 -155 -72 70 c-57 54 -79 70 -102 70 -56 0 -95 -77
-60 -120 7 -8 55 -57 109 -107 76 -74 102 -93 125 -93 25 0 59 30 216 189 174
175 187 191 187 225 0 46 -29 76 -72 76 -29 0 -50 -17 -182 -155z"/>
</g>
</svg>
